<svg xmlns="http://www.w3.org/2000/svg" xmlns:xlink="http://www.w3.org/1999/xlink" width="1500" zoomAndPan="magnify" viewBox="0 0 1125 374.999991" height="500" preserveAspectRatio="xMidYMid meet" version="1.0"><defs><g/><clipPath id="94389ccea4"><path d="M 35.851562 67.476562 L 296.101562 67.476562 L 296.101562 290.976562 L 35.851562 290.976562 Z M 35.851562 67.476562 " clip-rule="nonzero"/></clipPath></defs><g clip-path="url(#94389ccea4)"><path fill="#ffffff" d="M 277.828125 107.875 L 277.828125 86.882812 C 277.828125 86.582031 277.710938 86.339844 277.527344 86.160156 C 277.347656 85.980469 277.109375 85.863281 276.808594 85.863281 L 96.195312 85.863281 C 95.894531 85.863281 95.65625 85.980469 95.472656 86.160156 C 95.292969 86.339844 95.171875 86.582031 95.171875 86.882812 L 95.171875 99.898438 L 76.902344 99.898438 L 76.902344 86.882812 C 76.902344 81.601562 79.066406 76.742188 82.550781 73.265625 C 86.039062 69.785156 90.847656 67.625 96.195312 67.625 L 276.808594 67.625 C 282.097656 67.625 286.964844 69.785156 290.453125 73.265625 C 293.9375 76.742188 296.101562 81.542969 296.101562 86.882812 L 296.101562 107.875 C 296.101562 113.15625 293.9375 118.011719 290.453125 121.492188 L 290.390625 121.492188 C 286.90625 124.972656 282.097656 127.132812 276.808594 127.132812 L 95.171875 127.132812 L 95.171875 142.667969 C 95.171875 142.847656 95.171875 142.96875 95.234375 143.027344 L 95.234375 143.085938 C 95.234375 143.148438 95.355469 143.265625 95.472656 143.386719 C 109.117188 157.484375 122.761719 171.578125 136.34375 185.675781 L 139.832031 189.273438 L 140.972656 190.476562 C 141.09375 190.59375 141.214844 190.714844 141.273438 190.714844 C 141.332031 190.714844 141.453125 190.714844 141.695312 190.714844 L 241.167969 190.714844 C 241.464844 190.714844 241.707031 190.59375 241.886719 190.414062 C 242.066406 190.234375 242.1875 189.996094 242.1875 189.695312 L 242.1875 168.699219 C 242.1875 168.402344 242.066406 168.160156 241.886719 167.980469 C 241.707031 167.800781 241.464844 167.679688 241.167969 167.679688 L 141.574219 167.679688 C 141.332031 167.679688 141.214844 167.679688 141.152344 167.679688 C 141.09375 167.679688 140.972656 167.800781 140.851562 167.921875 L 136.226562 172.539062 L 123.601562 159.460938 L 128.050781 155.082031 C 129.855469 153.285156 131.957031 151.84375 134.300781 150.945312 C 136.644531 149.984375 139.109375 149.503906 141.632812 149.503906 L 241.226562 149.503906 C 246.515625 149.503906 251.382812 151.664062 254.871094 155.144531 C 258.355469 158.621094 260.519531 163.421875 260.519531 168.761719 L 260.519531 189.753906 C 260.519531 195.035156 258.355469 199.890625 254.871094 203.371094 L 254.808594 203.371094 C 251.324219 206.851562 246.515625 209.011719 241.226562 209.011719 L 141.753906 209.011719 C 139.109375 209.011719 136.585938 208.46875 134.242188 207.511719 C 131.898438 206.492188 129.792969 205.050781 127.929688 203.132812 L 116.992188 191.855469 L 95.535156 213.089844 C 95.414062 213.210938 95.355469 213.328125 95.292969 213.390625 C 95.292969 213.449219 95.234375 213.570312 95.234375 213.808594 L 95.234375 222.445312 L 76.960938 222.445312 L 76.960938 213.808594 C 76.960938 211.230469 77.441406 208.769531 78.40625 206.429688 C 79.367188 204.152344 80.808594 202.050781 82.671875 200.191406 L 104.308594 178.71875 L 82.371094 156.042969 C 80.628906 154.242188 79.246094 152.203125 78.34375 149.925781 C 77.441406 147.644531 76.960938 145.246094 76.960938 142.726562 L 76.960938 127.191406 L 55.144531 127.191406 C 54.84375 127.191406 54.605469 127.3125 54.421875 127.492188 C 54.242188 127.671875 54.121094 127.910156 54.121094 128.210938 L 54.121094 230.363281 C 54.121094 230.664062 54.242188 230.90625 54.421875 231.085938 C 54.605469 231.265625 54.84375 231.382812 55.144531 231.382812 L 276.867188 231.382812 C 282.15625 231.382812 287.027344 233.542969 290.511719 237.023438 C 293.996094 240.503906 296.160156 245.300781 296.160156 250.640625 L 296.160156 271.632812 C 296.160156 276.914062 293.996094 281.773438 290.511719 285.25 C 287.027344 288.730469 282.21875 290.890625 276.867188 290.890625 L 96.253906 290.890625 C 90.964844 290.890625 86.097656 288.730469 82.613281 285.25 C 79.125 281.773438 76.960938 276.972656 76.960938 271.632812 L 76.960938 249.621094 L 55.144531 249.621094 C 49.855469 249.621094 45.046875 247.460938 41.5625 243.980469 L 41.5 243.980469 C 38.015625 240.503906 35.851562 235.703125 35.851562 230.363281 L 35.851562 128.210938 C 35.851562 122.933594 38.015625 118.074219 41.5 114.59375 C 44.988281 111.113281 49.796875 108.957031 55.144531 108.957031 L 276.867188 108.957031 C 277.167969 108.957031 277.410156 108.835938 277.589844 108.65625 C 277.769531 108.476562 277.890625 108.234375 277.890625 107.9375 Z M 95.171875 249.558594 L 95.171875 271.574219 C 95.171875 271.875 95.292969 272.113281 95.472656 272.292969 C 95.65625 272.472656 95.894531 272.59375 96.195312 272.59375 L 276.808594 272.59375 C 277.109375 272.59375 277.347656 272.472656 277.527344 272.292969 C 277.710938 272.113281 277.828125 271.875 277.828125 271.574219 L 277.828125 250.578125 C 277.828125 250.28125 277.710938 250.039062 277.527344 249.859375 C 277.347656 249.679688 277.109375 249.558594 276.808594 249.558594 Z M 95.171875 249.558594 " fill-opacity="1" fill-rule="evenodd"/></g><g fill="#ffffff" fill-opacity="1"><g transform="translate(322.159974, 267.194174)"><g><path d="M 67.511719 -81.734375 L 98.164062 -155.457031 C 99.363281 -158.261719 98.363281 -160.265625 95.15625 -160.265625 L 75.125 -160.265625 C 72.921875 -160.265625 71.320312 -159.464844 70.515625 -157.460938 L 51.886719 -109.984375 L 33.253906 -157.460938 C 32.453125 -159.464844 30.851562 -160.265625 28.648438 -160.265625 L 8.613281 -160.265625 C 5.410156 -160.265625 4.40625 -158.261719 5.609375 -155.457031 L 36.058594 -81.734375 L 4.40625 -4.808594 C 3.207031 -2.003906 4.207031 0 7.414062 0 L 28.046875 0 C 30.25 0 31.851562 -0.800781 32.652344 -2.804688 L 51.886719 -51.285156 L 71.117188 -2.804688 C 71.917969 -0.800781 73.523438 0 75.726562 0 L 96.359375 0 C 99.566406 0 100.566406 -2.003906 99.363281 -4.808594 Z M 67.511719 -81.734375 "/></g></g></g><g fill="#ffffff" fill-opacity="1"><g transform="translate(481.424893, 267.194174)"><g><path d="M 10.015625 -3.207031 C 10.015625 -1 11.019531 0 13.222656 0 L 61.300781 0 C 80.132812 0 90.148438 -10.015625 90.148438 -28.847656 L 90.148438 -131.21875 C 90.148438 -150.050781 80.132812 -160.265625 61.300781 -160.265625 L 13.222656 -160.265625 C 11.019531 -160.265625 10.015625 -159.0625 10.015625 -157.0625 Z M 37.261719 -26.445312 L 37.261719 -133.820312 L 55.691406 -133.820312 C 60.902344 -133.820312 63.707031 -131.015625 63.707031 -125.609375 L 63.707031 -34.457031 C 63.707031 -29.046875 60.902344 -26.445312 55.691406 -26.445312 Z M 37.261719 -26.445312 "/></g></g></g><g fill="#ffffff" fill-opacity="1"><g transform="translate(633.077156, 267.194174)"><g><path d="M 106.578125 0 C 108.980469 0 109.78125 -1.203125 109.382812 -3.40625 L 76.125 -157.460938 C 75.726562 -159.464844 74.523438 -160.265625 72.71875 -160.265625 L 44.875 -160.265625 C 43.070312 -160.265625 41.871094 -159.464844 41.46875 -157.460938 L 8.214844 -3.40625 C 7.613281 -1.203125 8.613281 0 10.816406 0 L 32.253906 0 C 34.054688 0 35.058594 -1 35.457031 -2.804688 L 40.867188 -32.054688 L 76.527344 -32.054688 L 82.136719 -2.804688 C 82.535156 -1 83.539062 0 85.339844 0 Z M 71.519531 -55.292969 L 45.875 -55.292969 L 58.699219 -125.207031 Z M 71.519531 -55.292969 "/></g></g></g><g fill="#ffffff" fill-opacity="1"><g transform="translate(801.95802, 267.194174)"><g><path d="M 9.214844 -160.265625 C 7.210938 -160.265625 6.011719 -159.0625 6.011719 -157.0625 L 6.011719 -137.027344 C 6.011719 -135.023438 7.210938 -133.820312 9.214844 -133.820312 L 32.453125 -133.820312 L 32.453125 -3.207031 C 32.453125 -1 33.65625 0 35.660156 0 L 56.492188 0 C 58.699219 0 59.699219 -1 59.699219 -3.207031 L 59.699219 -133.820312 L 82.9375 -133.820312 C 85.140625 -133.820312 86.144531 -135.023438 86.144531 -137.027344 L 86.144531 -157.0625 C 86.144531 -159.0625 85.140625 -160.265625 82.9375 -160.265625 Z M 9.214844 -160.265625 "/></g></g></g><g fill="#ffffff" fill-opacity="1"><g transform="translate(945.597065, 267.194174)"><g><path d="M 106.578125 0 C 108.980469 0 109.78125 -1.203125 109.382812 -3.40625 L 76.125 -157.460938 C 75.726562 -159.464844 74.523438 -160.265625 72.71875 -160.265625 L 44.875 -160.265625 C 43.070312 -160.265625 41.871094 -159.464844 41.46875 -157.460938 L 8.214844 -3.40625 C 7.613281 -1.203125 8.613281 0 10.816406 0 L 32.253906 0 C 34.054688 0 35.058594 -1 35.457031 -2.804688 L 40.867188 -32.054688 L 76.527344 -32.054688 L 82.136719 -2.804688 C 82.535156 -1 83.539062 0 85.339844 0 Z M 71.519531 -55.292969 L 45.875 -55.292969 L 58.699219 -125.207031 Z M 71.519531 -55.292969 "/></g></g></g></svg>