<svg xmlns="http://www.w3.org/2000/svg" xmlns:xlink="http://www.w3.org/1999/xlink" width="1500" zoomAndPan="magnify" viewBox="0 0 1125 374.999991" height="500" preserveAspectRatio="xMidYMid meet" version="1.0"><defs><g/><clipPath id="91e75d8aee"><path d="M 35.851562 67.476562 L 296.101562 67.476562 L 296.101562 290.976562 L 35.851562 290.976562 Z M 35.851562 67.476562 " clip-rule="nonzero"/></clipPath></defs><g clip-path="url(#91e75d8aee)"><path fill="#000000" d="M 277.828125 107.875 L 277.828125 86.882812 C 277.828125 86.582031 277.710938 86.339844 277.527344 86.160156 C 277.347656 85.980469 277.109375 85.863281 276.808594 85.863281 L 96.195312 85.863281 C 95.894531 85.863281 95.65625 85.980469 95.472656 86.160156 C 95.292969 86.339844 95.171875 86.582031 95.171875 86.882812 L 95.171875 99.898438 L 76.902344 99.898438 L 76.902344 86.882812 C 76.902344 81.601562 79.066406 76.742188 82.550781 73.265625 C 86.039062 69.785156 90.847656 67.625 96.195312 67.625 L 276.808594 67.625 C 282.097656 67.625 286.964844 69.785156 290.453125 73.265625 C 293.9375 76.742188 296.101562 81.542969 296.101562 86.882812 L 296.101562 107.875 C 296.101562 113.15625 293.9375 118.011719 290.453125 121.492188 L 290.390625 121.492188 C 286.90625 124.972656 282.097656 127.132812 276.808594 127.132812 L 95.171875 127.132812 L 95.171875 142.667969 C 95.171875 142.847656 95.171875 142.96875 95.234375 143.027344 L 95.234375 143.085938 C 95.234375 143.148438 95.355469 143.265625 95.472656 143.386719 C 109.117188 157.484375 122.761719 171.578125 136.34375 185.675781 L 139.832031 189.273438 L 140.972656 190.476562 C 141.09375 190.59375 141.214844 190.714844 141.273438 190.714844 C 141.332031 190.714844 141.453125 190.714844 141.695312 190.714844 L 241.167969 190.714844 C 241.464844 190.714844 241.707031 190.59375 241.886719 190.414062 C 242.066406 190.234375 242.1875 189.996094 242.1875 189.695312 L 242.1875 168.699219 C 242.1875 168.402344 242.066406 168.160156 241.886719 167.980469 C 241.707031 167.800781 241.464844 167.679688 241.167969 167.679688 L 141.574219 167.679688 C 141.332031 167.679688 141.214844 167.679688 141.152344 167.679688 C 141.09375 167.679688 140.972656 167.800781 140.851562 167.921875 L 136.226562 172.539062 L 123.601562 159.460938 L 128.050781 155.082031 C 129.855469 153.285156 131.957031 151.84375 134.300781 150.945312 C 136.644531 149.984375 139.109375 149.503906 141.632812 149.503906 L 241.226562 149.503906 C 246.515625 149.503906 251.382812 151.664062 254.871094 155.144531 C 258.355469 158.621094 260.519531 163.421875 260.519531 168.761719 L 260.519531 189.753906 C 260.519531 195.035156 258.355469 199.890625 254.871094 203.371094 L 254.808594 203.371094 C 251.324219 206.851562 246.515625 209.011719 241.226562 209.011719 L 141.753906 209.011719 C 139.109375 209.011719 136.585938 208.46875 134.242188 207.511719 C 131.898438 206.492188 129.792969 205.050781 127.929688 203.132812 L 116.992188 191.855469 L 95.535156 213.089844 C 95.414062 213.210938 95.355469 213.328125 95.292969 213.390625 C 95.292969 213.449219 95.234375 213.570312 95.234375 213.808594 L 95.234375 222.445312 L 76.960938 222.445312 L 76.960938 213.808594 C 76.960938 211.230469 77.441406 208.769531 78.40625 206.429688 C 79.367188 204.152344 80.808594 202.050781 82.671875 200.191406 L 104.308594 178.71875 L 82.371094 156.042969 C 80.628906 154.242188 79.246094 152.203125 78.34375 149.925781 C 77.441406 147.644531 76.960938 145.246094 76.960938 142.726562 L 76.960938 127.191406 L 55.144531 127.191406 C 54.84375 127.191406 54.605469 127.3125 54.421875 127.492188 C 54.242188 127.671875 54.121094 127.910156 54.121094 128.210938 L 54.121094 230.363281 C 54.121094 230.664062 54.242188 230.90625 54.421875 231.085938 C 54.605469 231.265625 54.84375 231.382812 55.144531 231.382812 L 276.867188 231.382812 C 282.15625 231.382812 287.027344 233.542969 290.511719 237.023438 C 293.996094 240.503906 296.160156 245.300781 296.160156 250.640625 L 296.160156 271.632812 C 296.160156 276.914062 293.996094 281.773438 290.511719 285.25 C 287.027344 288.730469 282.21875 290.890625 276.867188 290.890625 L 96.253906 290.890625 C 90.964844 290.890625 86.097656 288.730469 82.613281 285.25 C 79.125 281.773438 76.960938 276.972656 76.960938 271.632812 L 76.960938 249.621094 L 55.144531 249.621094 C 49.855469 249.621094 45.046875 247.460938 41.5625 243.980469 L 41.5 243.980469 C 38.015625 240.503906 35.851562 235.703125 35.851562 230.363281 L 35.851562 128.210938 C 35.851562 122.933594 38.015625 118.074219 41.5 114.59375 C 44.988281 111.113281 49.796875 108.957031 55.144531 108.957031 L 276.867188 108.957031 C 277.167969 108.957031 277.410156 108.835938 277.589844 108.65625 C 277.769531 108.476562 277.890625 108.234375 277.890625 107.9375 Z M 95.171875 249.558594 L 95.171875 271.574219 C 95.171875 271.875 95.292969 272.113281 95.472656 272.292969 C 95.65625 272.472656 95.894531 272.59375 96.195312 272.59375 L 276.808594 272.59375 C 277.109375 272.59375 277.347656 272.472656 277.527344 272.292969 C 277.710938 272.113281 277.828125 271.875 277.828125 271.574219 L 277.828125 250.578125 C 277.828125 250.28125 277.710938 250.039062 277.527344 249.859375 C 277.347656 249.679688 277.109375 249.558594 276.808594 249.558594 Z M 95.171875 249.558594 " fill-opacity="1" fill-rule="evenodd"/></g><g fill="#000000" fill-opacity="1"><g transform="translate(322.178338, 265.308744)"><g><path d="M 67.5 -81.722656 L 98.148438 -155.433594 C 99.351562 -158.238281 98.347656 -160.242188 95.144531 -160.242188 L 75.113281 -160.242188 C 72.910156 -160.242188 71.308594 -159.441406 70.507812 -157.4375 L 51.878906 -109.964844 L 33.25 -157.4375 C 32.449219 -159.441406 30.847656 -160.242188 28.644531 -160.242188 L 8.613281 -160.242188 C 5.40625 -160.242188 4.40625 -158.238281 5.609375 -155.433594 L 36.054688 -81.722656 L 4.40625 -4.808594 C 3.203125 -2.003906 4.207031 0 7.410156 0 L 28.042969 0 C 30.246094 0 31.847656 -0.800781 32.648438 -2.804688 L 51.878906 -51.277344 L 71.105469 -2.804688 C 71.910156 -0.800781 73.511719 0 75.714844 0 L 96.34375 0 C 99.550781 0 100.550781 -2.003906 99.351562 -4.808594 Z M 67.5 -81.722656 "/></g></g></g><g fill="#000000" fill-opacity="1"><g transform="translate(481.419358, 265.308744)"><g><path d="M 10.015625 -3.203125 C 10.015625 -1 11.015625 0 13.21875 0 L 61.292969 0 C 80.121094 0 90.136719 -10.015625 90.136719 -28.84375 L 90.136719 -131.199219 C 90.136719 -150.027344 80.121094 -160.242188 61.292969 -160.242188 L 13.21875 -160.242188 C 11.015625 -160.242188 10.015625 -159.039062 10.015625 -157.035156 Z M 37.257812 -26.441406 L 37.257812 -133.800781 L 55.683594 -133.800781 C 60.890625 -133.800781 63.695312 -130.996094 63.695312 -125.589844 L 63.695312 -34.453125 C 63.695312 -29.042969 60.890625 -26.441406 55.683594 -26.441406 Z M 37.257812 -26.441406 "/></g></g></g><g fill="#000000" fill-opacity="1"><g transform="translate(633.049454, 265.308744)"><g><path d="M 106.5625 0 C 108.964844 0 109.765625 -1.203125 109.363281 -3.40625 L 76.113281 -157.4375 C 75.714844 -159.441406 74.511719 -160.242188 72.710938 -160.242188 L 44.867188 -160.242188 C 43.066406 -160.242188 41.863281 -159.441406 41.460938 -157.4375 L 8.210938 -3.40625 C 7.613281 -1.203125 8.613281 0 10.816406 0 L 32.25 0 C 34.050781 0 35.054688 -1 35.453125 -2.804688 L 40.863281 -32.046875 L 76.515625 -32.046875 L 82.125 -2.804688 C 82.523438 -1 83.527344 0 85.328125 0 Z M 71.507812 -55.285156 L 45.871094 -55.285156 L 58.6875 -125.1875 Z M 71.507812 -55.285156 "/></g></g></g><g fill="#000000" fill-opacity="1"><g transform="translate(801.904308, 265.308744)"><g><path d="M 9.214844 -160.242188 C 7.210938 -160.242188 6.007812 -159.039062 6.007812 -157.035156 L 6.007812 -137.007812 C 6.007812 -135.003906 7.210938 -133.800781 9.214844 -133.800781 L 32.449219 -133.800781 L 32.449219 -3.203125 C 32.449219 -1 33.652344 0 35.652344 0 L 56.484375 0 C 58.6875 0 59.691406 -1 59.691406 -3.203125 L 59.691406 -133.800781 L 82.925781 -133.800781 C 85.128906 -133.800781 86.128906 -135.003906 86.128906 -137.007812 L 86.128906 -157.035156 C 86.128906 -159.039062 85.128906 -160.242188 82.925781 -160.242188 Z M 9.214844 -160.242188 "/></g></g></g><g fill="#000000" fill-opacity="1"><g transform="translate(945.52284, 265.308744)"><g><path d="M 106.5625 0 C 108.964844 0 109.765625 -1.203125 109.363281 -3.40625 L 76.113281 -157.4375 C 75.714844 -159.441406 74.511719 -160.242188 72.710938 -160.242188 L 44.867188 -160.242188 C 43.066406 -160.242188 41.863281 -159.441406 41.460938 -157.4375 L 8.210938 -3.40625 C 7.613281 -1.203125 8.613281 0 10.816406 0 L 32.25 0 C 34.050781 0 35.054688 -1 35.453125 -2.804688 L 40.863281 -32.046875 L 76.515625 -32.046875 L 82.125 -2.804688 C 82.523438 -1 83.527344 0 85.328125 0 Z M 71.507812 -55.285156 L 45.871094 -55.285156 L 58.6875 -125.1875 Z M 71.507812 -55.285156 "/></g></g></g></svg>